<?xml version="1.0" encoding="UTF-8"?>
<!DOCTYPE svg PUBLIC "-//W3C//DTD SVG 1.1//EN" "http://www.w3.org/Graphics/SVG/1.1/DTD/svg11.dtd">
<svg xmlns="http://www.w3.org/2000/svg" version="1.1" width="416px" height="416px" style="shape-rendering:geometricPrecision; text-rendering:geometricPrecision; image-rendering:optimizeQuality; fill-rule:evenodd; clip-rule:evenodd" xmlns:xlink="http://www.w3.org/1999/xlink">
<g><path style="opacity:1" fill="#133207" d="M -0.5,-0.5 C 138.167,-0.5 276.833,-0.5 415.5,-0.5C 415.5,95.5 415.5,191.5 415.5,287.5C 404.833,287.5 394.167,287.5 383.5,287.5C 383.5,276.833 383.5,266.167 383.5,255.5C 383.5,244.833 383.5,234.167 383.5,223.5C 383.5,212.833 383.5,202.167 383.5,191.5C 383.5,180.833 383.5,170.167 383.5,159.5C 383.5,148.833 383.5,138.167 383.5,127.5C 383.5,116.833 383.5,106.167 383.5,95.5C 383.5,74.1667 383.5,52.8333 383.5,31.5C 351.5,31.5 319.5,31.5 287.5,31.5C 223.5,31.5 159.5,31.5 95.5,31.5C 74.1667,31.5 52.8333,31.5 31.5,31.5C 31.5,52.8333 31.5,74.1667 31.5,95.5C 31.5,106.167 31.5,116.833 31.5,127.5C 31.5,138.167 31.5,148.833 31.5,159.5C 31.5,180.833 31.5,202.167 31.5,223.5C 31.5,244.833 31.5,266.167 31.5,287.5C 20.8333,287.5 10.1667,287.5 -0.5,287.5C -0.5,191.5 -0.5,95.5 -0.5,-0.5 Z"/></g>
<g><path style="opacity:1" fill="#2b6b14" d="M 95.5,31.5 C 95.5,42.1667 95.5,52.8333 95.5,63.5C 84.8333,63.5 74.1667,63.5 63.5,63.5C 63.5,74.1667 63.5,84.8333 63.5,95.5C 52.8333,95.5 42.1667,95.5 31.5,95.5C 31.5,74.1667 31.5,52.8333 31.5,31.5C 52.8333,31.5 74.1667,31.5 95.5,31.5 Z"/></g>
<g><path style="opacity:1" fill="#35851a" d="M 95.5,31.5 C 159.5,31.5 223.5,31.5 287.5,31.5C 287.5,42.1667 287.5,52.8333 287.5,63.5C 308.833,63.5 330.167,63.5 351.5,63.5C 351.5,74.1667 351.5,84.8333 351.5,95.5C 308.833,95.5 266.167,95.5 223.5,95.5C 223.5,84.8333 223.5,74.1667 223.5,63.5C 202.167,63.5 180.833,63.5 159.5,63.5C 159.5,74.1667 159.5,84.8333 159.5,95.5C 138.167,95.5 116.833,95.5 95.5,95.5C 95.5,106.167 95.5,116.833 95.5,127.5C 74.1667,127.5 52.8333,127.5 31.5,127.5C 31.5,116.833 31.5,106.167 31.5,95.5C 42.1667,95.5 52.8333,95.5 63.5,95.5C 63.5,84.8333 63.5,74.1667 63.5,63.5C 74.1667,63.5 84.8333,63.5 95.5,63.5C 95.5,52.8333 95.5,42.1667 95.5,31.5 Z"/></g>
<g><path style="opacity:1" fill="#2b6b14" d="M 287.5,31.5 C 319.5,31.5 351.5,31.5 383.5,31.5C 383.5,52.8333 383.5,74.1667 383.5,95.5C 372.833,95.5 362.167,95.5 351.5,95.5C 351.5,84.8333 351.5,74.1667 351.5,63.5C 330.167,63.5 308.833,63.5 287.5,63.5C 287.5,52.8333 287.5,42.1667 287.5,31.5 Z"/></g>
<g><path style="opacity:1" fill="#2b6b14" d="M 223.5,95.5 C 202.167,95.5 180.833,95.5 159.5,95.5C 159.5,84.8333 159.5,74.1667 159.5,63.5C 180.833,63.5 202.167,63.5 223.5,63.5C 223.5,74.1667 223.5,84.8333 223.5,95.5 Z"/></g>
<g><path style="opacity:1" fill="#3a921d" d="M 159.5,95.5 C 180.833,95.5 202.167,95.5 223.5,95.5C 266.167,95.5 308.833,95.5 351.5,95.5C 351.5,106.167 351.5,116.833 351.5,127.5C 362.167,127.5 372.833,127.5 383.5,127.5C 383.5,138.167 383.5,148.833 383.5,159.5C 351.5,159.5 319.5,159.5 287.5,159.5C 287.5,170.167 287.5,180.833 287.5,191.5C 308.833,191.5 330.167,191.5 351.5,191.5C 351.5,202.167 351.5,212.833 351.5,223.5C 340.833,223.5 330.167,223.5 319.5,223.5C 308.833,223.5 298.167,223.5 287.5,223.5C 287.5,234.167 287.5,244.833 287.5,255.5C 276.833,255.5 266.167,255.5 255.5,255.5C 223.5,255.5 191.5,255.5 159.5,255.5C 159.5,244.833 159.5,234.167 159.5,223.5C 148.833,223.5 138.167,223.5 127.5,223.5C 127.5,212.833 127.5,202.167 127.5,191.5C 116.833,191.5 106.167,191.5 95.5,191.5C 95.5,212.833 95.5,234.167 95.5,255.5C 84.8333,255.5 74.1667,255.5 63.5,255.5C 63.5,244.833 63.5,234.167 63.5,223.5C 63.5,202.167 63.5,180.833 63.5,159.5C 52.8333,159.5 42.1667,159.5 31.5,159.5C 31.5,148.833 31.5,138.167 31.5,127.5C 52.8333,127.5 74.1667,127.5 95.5,127.5C 95.5,116.833 95.5,106.167 95.5,95.5C 116.833,95.5 138.167,95.5 159.5,95.5 Z"/></g>
<g><path style="opacity:1" fill="#35851a" d="M 351.5,95.5 C 362.167,95.5 372.833,95.5 383.5,95.5C 383.5,106.167 383.5,116.833 383.5,127.5C 372.833,127.5 362.167,127.5 351.5,127.5C 351.5,116.833 351.5,106.167 351.5,95.5 Z"/></g>
<g><path style="opacity:1" fill="#35851a" d="M 31.5,159.5 C 42.1667,159.5 52.8333,159.5 63.5,159.5C 63.5,180.833 63.5,202.167 63.5,223.5C 52.8333,223.5 42.1667,223.5 31.5,223.5C 31.5,202.167 31.5,180.833 31.5,159.5 Z"/></g>
<g><path style="opacity:1" fill="#35851a" d="M 383.5,159.5 C 383.5,170.167 383.5,180.833 383.5,191.5C 372.833,191.5 362.167,191.5 351.5,191.5C 330.167,191.5 308.833,191.5 287.5,191.5C 287.5,180.833 287.5,170.167 287.5,159.5C 319.5,159.5 351.5,159.5 383.5,159.5 Z"/></g>
<g><path style="opacity:1" fill="#35851a" d="M 255.5,255.5 C 255.5,266.167 255.5,276.833 255.5,287.5C 202.167,287.5 148.833,287.5 95.5,287.5C 95.5,276.833 95.5,266.167 95.5,255.5C 95.5,234.167 95.5,212.833 95.5,191.5C 106.167,191.5 116.833,191.5 127.5,191.5C 127.5,202.167 127.5,212.833 127.5,223.5C 138.167,223.5 148.833,223.5 159.5,223.5C 159.5,234.167 159.5,244.833 159.5,255.5C 191.5,255.5 223.5,255.5 255.5,255.5 Z"/></g>
<g><path style="opacity:1" fill="#2b6b14" d="M 351.5,191.5 C 362.167,191.5 372.833,191.5 383.5,191.5C 383.5,202.167 383.5,212.833 383.5,223.5C 372.833,223.5 362.167,223.5 351.5,223.5C 351.5,212.833 351.5,202.167 351.5,191.5 Z"/></g>
<g><path style="opacity:1" fill="#2b6b14" d="M 31.5,223.5 C 42.1667,223.5 52.8333,223.5 63.5,223.5C 63.5,234.167 63.5,244.833 63.5,255.5C 74.1667,255.5 84.8333,255.5 95.5,255.5C 95.5,266.167 95.5,276.833 95.5,287.5C 74.1667,287.5 52.8333,287.5 31.5,287.5C 31.5,266.167 31.5,244.833 31.5,223.5 Z"/></g>
<g><path style="opacity:1" fill="#35851a" d="M 319.5,223.5 C 319.5,234.167 319.5,244.833 319.5,255.5C 308.833,255.5 298.167,255.5 287.5,255.5C 287.5,244.833 287.5,234.167 287.5,223.5C 298.167,223.5 308.833,223.5 319.5,223.5 Z"/></g>
<g><path style="opacity:1" fill="#2b6b14" d="M 319.5,223.5 C 330.167,223.5 340.833,223.5 351.5,223.5C 351.5,234.167 351.5,244.833 351.5,255.5C 362.167,255.5 372.833,255.5 383.5,255.5C 383.5,266.167 383.5,276.833 383.5,287.5C 340.833,287.5 298.167,287.5 255.5,287.5C 255.5,276.833 255.5,266.167 255.5,255.5C 266.167,255.5 276.833,255.5 287.5,255.5C 298.167,255.5 308.833,255.5 319.5,255.5C 319.5,244.833 319.5,234.167 319.5,223.5 Z"/></g>
<g><path style="opacity:1" fill="#3a921d" d="M 351.5,223.5 C 362.167,223.5 372.833,223.5 383.5,223.5C 383.5,234.167 383.5,244.833 383.5,255.5C 372.833,255.5 362.167,255.5 351.5,255.5C 351.5,244.833 351.5,234.167 351.5,223.5 Z"/></g>
<g><path style="opacity:1" fill="#441604" d="M -0.5,287.5 C 10.1667,287.5 20.8333,287.5 31.5,287.5C 31.5,298.167 31.5,308.833 31.5,319.5C 31.5,330.167 31.5,340.833 31.5,351.5C 31.5,362.167 31.5,372.833 31.5,383.5C 42.1667,383.5 52.8333,383.5 63.5,383.5C 74.1667,383.5 84.8333,383.5 95.5,383.5C 191.5,383.5 287.5,383.5 383.5,383.5C 383.5,372.833 383.5,362.167 383.5,351.5C 383.5,340.833 383.5,330.167 383.5,319.5C 383.5,308.833 383.5,298.167 383.5,287.5C 394.167,287.5 404.833,287.5 415.5,287.5C 415.5,330.167 415.5,372.833 415.5,415.5C 276.833,415.5 138.167,415.5 -0.5,415.5C -0.5,372.833 -0.5,330.167 -0.5,287.5 Z"/></g>
<g><path style="opacity:1" fill="#133207" d="M 31.5,287.5 C 52.8333,287.5 74.1667,287.5 95.5,287.5C 148.833,287.5 202.167,287.5 255.5,287.5C 298.167,287.5 340.833,287.5 383.5,287.5C 383.5,298.167 383.5,308.833 383.5,319.5C 372.833,319.5 362.167,319.5 351.5,319.5C 340.833,319.5 330.167,319.5 319.5,319.5C 223.5,319.5 127.5,319.5 31.5,319.5C 31.5,308.833 31.5,298.167 31.5,287.5 Z"/></g>
<g><path style="opacity:1" fill="#6a2c14" d="M 31.5,319.5 C 127.5,319.5 223.5,319.5 319.5,319.5C 319.5,330.167 319.5,340.833 319.5,351.5C 244.833,351.5 170.167,351.5 95.5,351.5C 84.8333,351.5 74.1667,351.5 63.5,351.5C 52.8333,351.5 42.1667,351.5 31.5,351.5C 31.5,340.833 31.5,330.167 31.5,319.5 Z"/></g>
<g><path style="opacity:1" fill="#84361a" d="M 319.5,319.5 C 330.167,319.5 340.833,319.5 351.5,319.5C 351.5,330.167 351.5,340.833 351.5,351.5C 362.167,351.5 372.833,351.5 383.5,351.5C 383.5,362.167 383.5,372.833 383.5,383.5C 287.5,383.5 191.5,383.5 95.5,383.5C 95.5,372.833 95.5,362.167 95.5,351.5C 170.167,351.5 244.833,351.5 319.5,351.5C 319.5,340.833 319.5,330.167 319.5,319.5 Z"/></g>
<g><path style="opacity:1" fill="#6a2c14" d="M 351.5,319.5 C 362.167,319.5 372.833,319.5 383.5,319.5C 383.5,330.167 383.5,340.833 383.5,351.5C 372.833,351.5 362.167,351.5 351.5,351.5C 351.5,340.833 351.5,330.167 351.5,319.5 Z"/></g>
<g><path style="opacity:1" fill="#84361a" d="M 31.5,351.5 C 42.1667,351.5 52.8333,351.5 63.5,351.5C 63.5,362.167 63.5,372.833 63.5,383.5C 52.8333,383.5 42.1667,383.5 31.5,383.5C 31.5,372.833 31.5,362.167 31.5,351.5 Z"/></g>
<g><path style="opacity:1" fill="#ab4523" d="M 63.5,351.5 C 74.1667,351.5 84.8333,351.5 95.5,351.5C 95.5,362.167 95.5,372.833 95.5,383.5C 84.8333,383.5 74.1667,383.5 63.5,383.5C 63.5,372.833 63.5,362.167 63.5,351.5 Z"/></g>
</svg>
